<mxfile host="app.diagrams.net" modified="2023-10-13T09:05:15.572Z" agent="Mozilla/5.0 (Windows NT 10.0; Win64; x64; rv:109.0) Gecko/20100101 Firefox/110.0" version="21.8.2" etag="J3nc7lgbdG_oCsjkB1HM" type="github">
  <diagram name="Page-1" id="v_LOG3iEKz90UjBwet6A">
    <mxGraphModel>
      <root>
        <mxCell id="0" />
        <mxCell id="1" parent="0" />
      </root>
    </mxGraphModel>
  </diagram>
</mxfile>
